<svg height="511pt" viewBox="0 0 511.99844 511" width="511pt" xmlns="http://www.w3.org/2000/svg"><path d="m493.132812 346.726562-49.878906-49.878906c-11.949218-11.949218-27.835937-18.527344-44.734375-18.527344-16.863281 0-32.730469 6.558594-44.671875 18.46875-.027344.027344-.050781.050782-.078125.078126-.007812.007812-.019531.019531-.027343.023437l-34.472657 34.476563-138.1875-138.191407 34.472657-34.46875c.082031-.082031.164062-.167969.242187-.25 11.824219-11.925781 18.332031-27.726562 18.332031-44.53125 0-16.898437-6.582031-32.785156-18.53125-44.734375l-49.90625-49.910156c-.121094-.125-.242187-.25-.367187-.375-11.941407-11.871094-27.78125-18.40625-44.621094-18.40625-16.820313 0-32.644531 6.519531-44.574219 18.367188-.136718.132812-.269531.265624-.402344.402343-21.0625 21.066407-44.125 44.125-44.757812 44.757813-32.359375 32.359375-39.644531 84.851562-20.515625 147.804687 18.148437 59.722657 58.230469 122.707031 112.867187 177.347657 76.03125 76.027343 168.582032 123.257812 241.546876 123.257812 34.46875 0 63.378906-10.6875 83.582031-30.894531.617187-.613281 23.71875-23.714844 44.804687-44.800781.121094-.121094.242188-.242188.363282-.363282 24.375-24.53125 24.457031-64.34375.195312-88.976562-.21875-.230469-.445312-.457032-.679688-.675782zm0 0"/><path d="m352.523438 226.914062c2.929687 2.929688 6.765624 4.394532 10.605468 4.394532 3.835938 0 7.675782-1.464844 10.601563-4.394532l56.335937-56.328124 22.863282 22.859374c3.910156 3.914063 9.652343 5.351563 14.949218 3.75 5.292969-1.601562 9.277344-5.988281 10.359375-11.414062l33.46875-167.339844c.984375-4.917968-.554687-10-4.101562-13.546875-3.546875-3.546875-8.628907-5.082031-13.546875-4.101562l-167.335938 33.46875c-5.425781 1.085937-9.8125 5.070312-11.414062 10.363281-1.601563 5.292969-.160156 11.039062 3.75 14.953125l22.863281 22.859375-56.335937 56.324219c-2.8125 2.8125-4.390626 6.628906-4.394532 10.605469 0 3.980468 1.582032 7.792968 4.394532 10.605468zm0 0"/></svg>